<svg width="553" height="136" viewBox="0 0 553 136" fill="none" xmlns="http://www.w3.org/2000/svg">
<path d="M217 0C223.6 0 230.2 0 237 0C237.495 2.18625 237.99 4.3725 238.5 6.625C240.786 16.499 243.445 26.2733 246.074 36.0603C248.101 43.6094 250.075 51.1626 251.938 58.7539C253.129 63.5152 254.372 68.2618 255.616 73.0095C262.978 101.142 262.978 101.142 264 113C264.66 113 265.32 113 266 113C265.937 111.946 265.874 110.891 265.809 109.805C265.818 103.7 267.521 97.9932 269.062 92.125C269.534 90.2863 269.534 90.2863 270.015 88.4104C272.723 77.9071 275.537 67.4315 278.383 56.9648C279.982 51.0814 281.537 45.1871 283.078 39.2881C284.304 34.606 285.558 29.9321 286.828 25.2617C287.146 24.0912 287.464 22.9208 287.791 21.7148C288.417 19.4108 289.046 17.1074 289.678 14.8047C289.965 13.7489 290.251 12.6932 290.547 11.6055C290.803 10.6686 291.059 9.73166 291.323 8.76636C292.03 5.87649 292.511 2.93461 293 0C300.26 0 307.52 0 315 0C320.122 16.7939 324.684 33.6454 328.914 50.6836C330.185 55.7343 331.495 60.7739 332.812 65.8125C333.061 66.7661 333.31 67.7197 333.567 68.7021C335.007 74.2134 336.454 79.7225 337.906 85.2305C338.542 87.6536 339.177 90.0768 339.812 92.5C340.115 93.6393 340.417 94.7786 340.728 95.9524C342.124 101.29 343.392 106.502 344 112C345.565 105.94 347.047 99.8797 348.312 93.75C349.743 86.9609 351.386 80.2316 353.062 73.5C353.449 71.941 353.449 71.941 353.843 70.3506C355.063 65.4905 356.409 60.7525 358 56C358.507 53.7352 358.985 51.4639 359.438 49.1875C360.284 45.1119 361.177 41.1758 362.562 37.25C363.85 33.4442 364.67 29.8741 365.402 25.9453C367.177 17.2012 369.55 8.5745 372 0C378.6 0 385.2 0 392 0C391.285 5.00714 390.456 8.76128 388.82 13.4141C387.869 16.4142 387.18 19.4272 386.5 22.5C385.49 27.0386 384.27 31.3585 382.738 35.7422C381.613 39.1828 380.808 42.6912 379.953 46.207C378.678 51.2806 377.311 56.3274 375.938 61.375C375.551 62.8024 375.551 62.8024 375.157 64.2585C374.161 67.9068 373.163 71.5217 371.941 75.1016C370.94 78.1844 370.264 81.2897 369.585 84.4565C368.454 89.3751 367.012 94.2113 365.625 99.0625C363.219 107.541 360.932 116.016 358.922 124.598C357.871 128.477 356.411 132.237 355 136C347.74 136 340.48 136 333 136C329.855 125.065 326.716 114.143 323.859 103.129C323.279 101.017 322.639 98.9209 321.945 96.8438C320.933 93.7976 320.294 90.7297 319.625 87.5938C318.918 84.6603 318.036 81.814 317.125 78.9375C315.009 72.1856 313.286 65.3706 311.612 58.4976C310.345 53.3268 309.044 48.1643 307.75 43C307.224 40.8959 306.698 38.7917 306.172 36.6875C305.946 35.7839 305.72 34.8802 305.487 33.9492C305.246 32.9844 305.246 32.9844 305 32C304.67 31.67 304.34 31.34 304 31C303.804 31.8011 303.607 32.6021 303.405 33.4275C302.503 37.0984 301.595 40.768 300.688 44.4375C300.379 45.6976 300.07 46.9576 299.752 48.2559C298.09 54.9557 296.229 61.4699 294 68C293.623 69.6574 293.279 71.3235 293 73C292.266 76.9341 291.162 80.5881 289.84 84.3711C288.373 88.9613 287.317 93.6573 286.172 98.3359C284.183 106.36 281.94 114.318 279.746 122.288C278.49 126.856 277.245 131.428 276 136C268.74 136 261.48 136 254 136C252.24 131.307 250.609 126.943 249.281 122.172C248.842 120.6 248.842 120.6 248.395 118.996C247.952 117.389 247.952 117.389 247.5 115.75C247.205 114.694 246.91 113.639 246.605 112.551C244.878 106.332 243.25 100.096 241.701 93.8306C240.665 89.6496 239.588 85.48 238.5 81.3125C238.3 80.5358 238.1 79.7592 237.895 78.959C236.861 75.0047 235.735 71.1149 234.426 67.2422C233.366 64.0882 232.443 61.0432 231.688 57.8125C230.206 51.7214 228.584 45.6732 226.938 39.625C226.68 38.6734 226.422 37.7219 226.157 36.7415C224.893 32.11 223.531 27.5514 222 23C221.518 20.8153 221.037 18.6302 220.574 16.4414C219.762 12.9887 218.683 9.63333 217.586 6.26172C217 4 217 4 217 0Z" fill="#D80853"/>
<path d="M445 0C452.26 0 459.52 0 467 0C477.007 14.8747 477.007 14.8747 481.496 22.5234C483.921 26.5164 486.55 30.3704 489.168 34.2383C490.858 36.7864 492.438 39.3723 494 42C495.057 43.6701 496.12 45.3366 497.188 47C499.779 51.0548 502.312 55.1391 504.812 59.25C508.646 65.5101 512.696 71.6037 516.801 77.6875C518.617 80.4228 520.33 83.1754 522 86C523.986 89.185 525.973 92.3693 527.965 95.5508C530.157 99.2664 532.071 103.141 534 107C534.33 71.69 534.66 36.38 535 0C540.94 0 546.88 0 553 0C553 44.88 553 89.76 553 136C545.74 136 538.48 136 531 136C520.437 120.225 520.437 120.225 516 113C515.064 111.499 514.126 109.999 513.188 108.5C512.105 106.768 512.105 106.768 511 105C511 104.34 511 103.68 511 103C510.34 103 509.68 103 509 103C508.649 102.237 508.299 101.474 507.938 100.688C503.984 93.1627 499.126 86.1584 494.395 79.1055C492.657 76.4815 490.991 73.8177 489.336 71.1406C488.375 69.6011 487.399 68.0709 486.414 66.5469C481.659 59.1878 477.292 51.6371 473 44C473 43.34 473 42.68 473 42C472.34 42 471.68 42 471 42C468.69 37.71 466.38 33.42 464 29C464 64.31 464 99.62 464 136C457.73 136 451.46 136 445 136C445 91.12 445 46.24 445 0Z" fill="#C90755"/>
<path d="M103 0C159 0 159 0 176 4C180.601 6.58541 184.768 8.9677 189 12C189 12.66 189 13.32 189 14C190.32 14.33 191.64 14.66 193 15C193.99 17.475 193.99 17.475 195 20C196.32 20.66 197.64 21.32 199 22C205.092 30.7084 208.537 40.4237 210.549 50.8403C211.345 56.415 211.226 62.0026 211.25 67.625C211.271 68.8329 211.291 70.0407 211.312 71.2852C211.368 84.1432 208.09 95.2575 203 107C201.763 109.426 200.449 111.692 199 114C198.34 114 197.68 114 197 114C196.01 115.98 196.01 115.98 195 118C193.373 119.705 191.711 121.379 190 123C189.34 123 188.68 123 188 123C188 123.66 188 124.32 188 125C179.897 130.228 171.167 132.944 162 136C142.53 136 123.06 136 103 136C103 91.12 103 46.24 103 0ZM122 17C122 50.66 122 84.32 122 119C151.856 120.51 151.856 120.51 171.062 113.75C176.46 110.535 181 106.68 184.77 101.629C189.52 93.7282 191.572 85.018 193 76C194.114 64.3189 192.551 53.1253 189 42C186.275 36.1091 182.76 31.454 178 27.0625C170.851 21.3354 165.198 19.5087 156 17C144.78 17 133.56 17 122 17Z" fill="#E40952"/>
<path d="M0 0C27.72 0 55.44 0 84 0C84 5.61 84 11.22 84 17C62.22 17 40.44 17 18 17C18 30.86 18 44.72 18 59C38.13 59 58.26 59 79 59C79 64.61 79 70.22 79 76C58.87 76 38.74 76 18 76C18 90.19 18 104.38 18 119C39.78 119 61.56 119 84 119C84 124.61 84 130.22 84 136C56.28 136 28.56 136 0 136C0 91.12 0 46.24 0 0Z" fill="#ED0A50"/>
<path d="M445 0C452.26 0 459.52 0 467 0C470.3 4.95 473.6 9.9 477 15C476.67 15.66 476.34 16.32 476 17C475.67 25.58 475.34 34.16 475 43C474.01 43.495 474.01 43.495 473 44C473 43.34 473 42.68 473 42C472.34 42 471.68 42 471 42C468.69 37.71 466.38 33.42 464 29C464 64.31 464 99.62 464 136C457.73 136 451.46 136 445 136C445 91.12 445 46.24 445 0Z" fill="#CE0855"/>
<path d="M403 0C409.27 0 415.54 0 422 0C422 44.88 422 89.76 422 136C415.73 136 409.46 136 403 136C403 91.12 403 46.24 403 0Z" fill="#D20755"/>
<path d="M217 0C222.61 0 228.22 0 234 0C234 0.33 234 0.66 234 1C229.38 1.33 224.76 1.66 220 2C219.67 3.65 219.34 5.3 219 7C218.34 6.01 217.68 5.02 217 4C217 2.68 217 1.36 217 0Z" fill="#D9064F"/>
<path d="M195 115C195.66 115.33 196.32 115.66 197 116C194.03 118.475 194.03 118.475 191 121C191.33 119.68 191.66 118.36 192 117C192.99 116.34 193.98 115.68 195 115Z" fill="#D40547"/>
<path d="M372 0C374.97 0 377.94 0 381 0C381 0.33 381 0.66 381 1C378.36 1.66 375.72 2.32 373 3C372.67 2.01 372.34 1.02 372 0Z" fill="#D40653"/>
<path d="M170 113C170.33 113.99 170.66 114.98 171 116C170.01 116.33 169.02 116.66 168 117C168 116.01 168 115.02 168 114C168.66 113.67 169.32 113.34 170 113Z" fill="#E5053F"/>
<path d="M175 110C175.99 110.33 176.98 110.66 178 111C177.34 111.66 176.68 112.32 176 113C175.01 112.67 174.02 112.34 173 112C173.66 111.34 174.32 110.68 175 110Z" fill="#E60548"/>
<path d="M163 17C163.99 17.33 164.98 17.66 166 18C166 18.66 166 19.32 166 20C164.35 19.67 162.7 19.34 161 19C161.66 18.34 162.32 17.68 163 17Z" fill="#E70665"/>
</svg>
